<svg width="218" height="62" viewBox="0 0 218 62" version="1.1" xmlns="http://www.w3.org/2000/svg" xmlns:xlink="http://www.w3.org/1999/xlink" xmlns:figma="http://www.figma.com/figma/ns">
<title>logo-white</title>
<desc>Created using Figma</desc>
<g id="Canvas" transform="translate(-1239 -1030)" figma:type="canvas">
<mask id="mask0_alpha" mask-type="alpha">
<path d="M 1239 1030L 1457 1030L 1457 1092L 1239 1092L 1239 1030Z" fill="#000FF"/>
</mask>
<g id="logo-white" style="mix-blend-mode:normal;" mask="url(#mask0_alpha)" figma:type="frame">
<g id="ARTMIDIA" style="mix-blend-mode:normal;" figma:type="vector">
<use xlink:href="#path0_fill" transform="translate(1289.82 1050)" fill="#000FF" style="mix-blend-mode:normal;"/>
<use xlink:href="#path1_fill" transform="translate(1289.82 1050)" fill="#000FF" style="mix-blend-mode:normal;"/>
<use xlink:href="#path2_fill" transform="translate(1289.82 1050)" fill="#000FF" style="mix-blend-mode:normal;"/>
<use xlink:href="#path3_fill" transform="translate(1289.82 1050)" fill="#000FF" style="mix-blend-mode:normal;"/>
<use xlink:href="#path4_fill" transform="translate(1289.82 1050)" fill="#000FF" style="mix-blend-mode:normal;"/>
<use xlink:href="#path5_fill" transform="translate(1289.82 1050)" fill="#000FF" style="mix-blend-mode:normal;"/>
<use xlink:href="#path6_fill" transform="translate(1289.82 1050)" fill="#000FF" style="mix-blend-mode:normal;"/>
<use xlink:href="#path7_fill" transform="translate(1289.82 1050)" fill="#000FF" style="mix-blend-mode:normal;"/>
</g>
<g id="Group" style="mix-blend-mode:normal;" figma:type="frame">
<g id="Vector 1" style="mix-blend-mode:normal;" figma:type="vector">
<use xlink:href="#path8_fill" transform="translate(1250.91 1032.4)" fill="#000FF" style="mix-blend-mode:normal;"/>
</g>
<g id="Vector 2" style="mix-blend-mode:normal;" figma:type="vector">
<use xlink:href="#path9_fill" transform="translate(1254.31 1030)" fill="#000FF" style="mix-blend-mode:normal;"/>
</g>
<g id="Vector 3" style="mix-blend-mode:normal;" figma:type="vector">
<use xlink:href="#path10_fill" transform="translate(1257.27 1033.16)" fill="#000FF" style="mix-blend-mode:normal;"/>
</g>
<g id="Vector 4" style="mix-blend-mode:normal;" figma:type="vector">
<use xlink:href="#path11_fill" transform="translate(1240.66 1065.97)" fill="#000FF" style="mix-blend-mode:normal;"/>
</g>
<g id="Vector 5" style="mix-blend-mode:normal;" figma:type="vector">
<use xlink:href="#path12_fill" transform="translate(1239 1068.91)" fill="#000FF" style="mix-blend-mode:normal;"/>
</g>
<g id="Vector 6" style="mix-blend-mode:normal;" figma:type="vector">
<use xlink:href="#path13_fill" transform="translate(1241.5 1072.07)" fill="#000FF" style="mix-blend-mode:normal;"/>
</g>
<g id="Vector 7" style="mix-blend-mode:normal;" figma:type="vector">
<use xlink:href="#path14_fill" transform="translate(1261.1 1037.41)" fill="#000FF" style="mix-blend-mode:normal;"/>
</g>
<g id="Vector 8" style="mix-blend-mode:normal;" figma:type="vector">
<use xlink:href="#path15_fill" transform="translate(1264.06 1034.32)" fill="#000FF" style="mix-blend-mode:normal;"/>
</g>
<g id="Vector 9" style="mix-blend-mode:normal;" figma:type="vector">
<use xlink:href="#path16_fill" transform="translate(1267.26 1036.23)" fill="#000FF" style="mix-blend-mode:normal;"/>
</g>
</g>
</g>
</g>
<defs>
<path id="path0_fill" d="M 0 21.1029C 0 21.0628 0.0201305 20.9827 0.0603917 20.8624L 6.22035 0.871773C 6.40153 0.290591 6.92493 0 7.79054 0C 8.65616 0 9.17955 0.290591 9.36073 0.871773L 15.5207 20.8624C 15.5207 20.9025 15.5207 20.9426 15.5207 20.9827C 15.5408 21.0228 15.5509 21.0528 15.5509 21.0729C 15.5509 21.3534 15.3798 21.6039 15.0376 21.8244C 14.7155 22.0448 14.3632 22.1551 13.9807 22.1551C 13.4976 22.1551 13.1956 21.9647 13.0748 21.5839L 11.7462 17.1048L 3.80468 17.1048L 2.47606 21.5839C 2.35528 21.9647 2.04326 22.1551 1.53999 22.1551C 1.17764 22.1551 0.825355 22.0549 0.483134 21.8545C 0.161045 21.654 0 21.4035 0 21.1029ZM 4.37841 15.0306L 11.1423 15.0306L 7.79054 3.72758L 4.37841 15.0306Z"/>
<path id="path1_fill" d="M 25.7814 21.2532L 25.7814 1.05214C 25.7814 0.811651 25.8619 0.611244 26.023 0.450916C 26.2041 0.290591 26.4256 0.200407 26.6873 0.180366L 32.2131 0.180366C 34.2262 0.180366 35.8467 0.651324 37.0747 1.59324C 38.3026 2.51512 38.9166 4.04823 38.9166 6.1926C 38.9166 9.49932 37.4169 11.4533 34.4174 12.0545L 38.8864 20.5017C 38.9669 20.642 39.0072 20.7823 39.0072 20.9226C 39.0072 21.2432 38.8462 21.5438 38.5241 21.8244C 38.202 22.0849 37.8598 22.2152 37.4974 22.2152C 37.0747 22.2152 36.6922 21.8845 36.35 21.2232L 31.7904 12.4153L 28.3179 12.4153L 28.3179 21.2532C 28.3179 21.5338 28.187 21.7543 27.9253 21.9146C 27.6837 22.0749 27.3918 22.1551 27.0496 22.1551C 26.7074 22.1551 26.4054 22.0749 26.1437 21.9146C 25.9022 21.7543 25.7814 21.5338 25.7814 21.2532ZM 28.3179 10.311L 32.2131 10.311C 34.9911 10.311 36.3802 8.99831 36.3802 6.37296C 36.3802 3.76766 34.9911 2.46501 32.2131 2.46501L 28.3179 2.46501L 28.3179 10.311Z"/>
<path id="path2_fill" d="M 47.7385 1.32269C 47.7385 1.02208 47.8191 0.76155 47.9801 0.541101C 48.1411 0.300611 48.3626 0.180366 48.6444 0.180366L 60.9341 0.180366C 61.216 0.180366 61.4374 0.300611 61.5984 0.541101C 61.7595 0.76155 61.84 1.02208 61.84 1.32269C 61.84 1.64334 61.7595 1.92391 61.5984 2.1644C 61.4374 2.40489 61.216 2.52514 60.9341 2.52514L 56.0726 2.52514L 56.0726 21.2532C 56.0726 21.5338 55.9417 21.7543 55.6801 21.9146C 55.4385 22.0749 55.1466 22.1551 54.8044 22.1551C 54.4621 22.1551 54.1602 22.0749 53.8985 21.9146C 53.6569 21.7543 53.5361 21.5338 53.5361 21.2532L 53.5361 2.52514L 48.6444 2.52514C 48.3626 2.52514 48.1411 2.41491 47.9801 2.19446C 47.8191 1.95397 47.7385 1.66338 47.7385 1.32269Z"/>
<path id="path3_fill" d="M 71.9599 21.2532L 71.9599 1.41287C 71.9599 0.591203 72.3826 0.180366 73.2281 0.180366C 74.0333 0.180366 74.7077 0.711448 75.2512 1.77361L 79.992 10.822L 84.7629 1.77361C 85.3467 0.711448 86.0211 0.180366 86.7861 0.180366C 87.6316 0.180366 88.0543 0.591203 88.0543 1.41287L 88.0543 21.2532C 88.0543 21.5338 87.9234 21.7543 87.6618 21.9146C 87.4202 22.0749 87.1283 22.1551 86.7861 22.1551C 86.4439 22.1551 86.1419 22.0749 85.8802 21.9146C 85.6386 21.7543 85.5178 21.5338 85.5178 21.2532L 85.5178 5.47113L 80.9583 14.0085C 80.7167 14.4694 80.3845 14.6999 79.9618 14.6999C 79.5793 14.6999 79.2673 14.4694 79.0257 14.0085L 74.4963 5.35088L 74.4963 21.2532C 74.4963 21.5338 74.3655 21.7543 74.1038 21.9146C 73.8622 22.0749 73.5703 22.1551 73.2281 22.1551C 72.8859 22.1551 72.5839 22.0749 72.3222 21.9146C 72.0807 21.7543 71.9599 21.5338 71.9599 21.2532Z"/>
<path id="path4_fill" d="M 99.8852 21.2532L 99.8852 1.05214C 99.8852 0.771569 100.006 0.561142 100.248 0.420856C 100.509 0.260529 100.811 0.180366 101.153 0.180366C 101.496 0.180366 101.788 0.260529 102.029 0.420856C 102.291 0.561142 102.422 0.771569 102.422 1.05214L 102.422 21.2532C 102.422 21.5338 102.291 21.7543 102.029 21.9146C 101.788 22.0749 101.496 22.1551 101.153 22.1551C 100.811 22.1551 100.509 22.0749 100.248 21.9146C 100.006 21.7543 99.8852 21.5338 99.8852 21.2532Z"/>
<path id="path5_fill" d="M 114.246 21.2833L 114.246 1.05214C 114.246 0.811651 114.347 0.611244 114.548 0.450916C 114.769 0.27055 115.051 0.180366 115.393 0.180366L 120.738 0.180366C 122.711 0.180366 124.291 0.711448 125.479 1.77361C 126.667 2.81573 127.26 4.46909 127.26 6.7337L 127.26 15.6017C 127.26 17.8663 126.667 19.5297 125.479 20.5919C 124.291 21.634 122.711 22.1551 120.738 22.1551L 115.393 22.1551C 115.051 22.1551 114.769 22.0749 114.548 21.9146C 114.347 21.7342 114.246 21.5238 114.246 21.2833ZM 116.782 19.8704L 120.738 19.8704C 122.006 19.8704 122.983 19.5197 123.667 18.8183C 124.372 18.0968 124.724 17.0246 124.724 15.6017L 124.724 6.7337C 124.724 5.3108 124.372 4.24864 123.667 3.54721C 122.983 2.82575 122.006 2.46501 120.738 2.46501L 116.782 2.46501L 116.782 19.8704Z"/>
<path id="path6_fill" d="M 138.898 21.2532L 138.898 1.05214C 138.898 0.771569 139.019 0.561142 139.26 0.420856C 139.522 0.260529 139.824 0.180366 140.166 0.180366C 140.509 0.180366 140.8 0.260529 141.042 0.420856C 141.304 0.561142 141.435 0.771569 141.435 1.05214L 141.435 21.2532C 141.435 21.5338 141.304 21.7543 141.042 21.9146C 140.8 22.0749 140.509 22.1551 140.166 22.1551C 139.824 22.1551 139.522 22.0749 139.26 21.9146C 139.019 21.7543 138.898 21.5338 138.898 21.2532Z"/>
<path id="path7_fill" d="M 151.628 21.1029C 151.628 21.0628 151.648 20.9827 151.689 20.8624L 157.849 0.871773C 158.03 0.290591 158.553 0 159.419 0C 160.284 0 160.808 0.290591 160.989 0.871773L 167.149 20.8624C 167.149 20.9025 167.149 20.9426 167.149 20.9827C 167.169 21.0228 167.179 21.0528 167.179 21.0729C 167.179 21.3534 167.008 21.6039 166.666 21.8244C 166.344 22.0448 165.991 22.1551 165.609 22.1551C 165.126 22.1551 164.824 21.9647 164.703 21.5839L 163.374 17.1048L 155.433 17.1048L 154.104 21.5839C 153.984 21.9647 153.671 22.1551 153.168 22.1551C 152.806 22.1551 152.454 22.0549 152.111 21.8545C 151.789 21.654 151.628 21.4035 151.628 21.1029ZM 156.007 15.0306L 162.771 15.0306L 159.419 3.72758L 156.007 15.0306Z"/>
<path id="path8_fill" d="M 0 38.8406L 10.1177 0.230606L 11.8816 0L 0.998453 39.1041L 0 38.8406Z"/>
<path id="path9_fill" d="M 0 41.1137L 10.7167 0L 12.2477 1.15303L 0.898608 41.509L 0 41.1137Z"/>
<path id="path10_fill" d="M 0 38.3464L 10.1842 0L 11.4822 0.955366L 0.765481 38.7088L 0 38.3464Z"/>
<path id="path11_fill" d="M 0 3.16259L 0.698917 1.38363L 41.2694 0L 41.2694 0.691817L 0 3.16259Z"/>
<path id="path12_fill" d="M 0 3.36025L 0.632354 1.38363L 42.634 0L 42.634 0.823592L 0 3.36025Z"/>
<path id="path13_fill" d="M 0.765481 3.22848L 0 1.44952L 40.5039 0L 40.5039 0.757704L 0.765481 3.22848Z"/>
<path id="path14_fill" d="M 2.1966 0L 0 1.08714L 6.98917 54.5877L 8.28716 54.5877L 2.1966 0Z"/>
<path id="path15_fill" d="M 0 0L 2.42957 0.823592L 8.16721 55.576L 6.85605 55.576L 0 0Z"/>
<path id="path16_fill" d="M 0 0L 2.49613 0.955366L 8.15669 55.3124L 6.85605 55.3124L 0 0Z"/>
</defs>
</svg>
